<?xml version="1.0" encoding="utf-8"?>
<!-- Generator: Adobe Illustrator 16.0.0, SVG Export Plug-In . SVG Version: 6.00 Build 0)  -->
<!DOCTYPE svg PUBLIC "-//W3C//DTD SVG 1.1//EN" "http://www.w3.org/Graphics/SVG/1.1/DTD/svg11.dtd">
<svg version="1.1" id="Layer_1" xmlns="http://www.w3.org/2000/svg" xmlns:xlink="http://www.w3.org/1999/xlink" x="0px" y="0px"
	 width="612px" height="792px" viewBox="0 0 612 792" enable-background="new 0 0 612 792" xml:space="preserve">
<g>
	<g transform="translate(0.000000,511.000000) scale(0.100000,-0.100000)">
		<path fill="#FFFFFF" d="M2836.865,4143.721c-817.202-77.603-1529.267-434.277-2036.123-1024.917
			C338.984,2583.184,92.476,1959.98,63.647,1260.405C21.113,225.508,529.194-769.414,1397.685-1348.798
			c382.93-255.264,799.639-412.979,1282.69-483.047c147.676-22.52,601.968-22.52,757.104-1.23
			c673.261,93.887,1277.734,391.689,1745.732,859.746C5655-501.543,5947.841,94.121,6042.949,772.393
			c21.299,155.205,21.299,609.433-1.289,757.109c-70.01,482.988-227.656,899.761-482.988,1282.69
			c-561.875,842.231-1519.229,1349.028-2521.621,1336.548C2950.698,4148.677,2860.61,4144.946,2836.865,4143.721z
			 M3313.613,3736.987c604.414-61.323,1166.347-326.626,1589.306-748.354c420.498-421.729,688.311-989.849,749.639-1589.302
			c76.309-763.413-203.984-1545.542-749.639-2092.427c-546.885-545.605-1329.023-825.957-2092.373-749.639
			C1569.17-1317.519,599.272-347.685,472.891,896.27c-85.127,832.192,264.082,1699.458,899.766,2231.284
			C1920.762,3586.802,2625.356,3808.345,3313.613,3736.987z"/>
		<path fill="#FFFFFF" d="M2979.521,2750.869c-76.318-35.068-111.382-91.372-111.382-178.95c0-78.823,23.745-121.357,93.877-168.911
			c82.622-57.588,198.96-30.049,267.817,62.549c38.799,52.568,36.289,162.666-3.74,220.259
			c-32.559,45.044-112.607,88.862-163.955,88.862C3044.58,2774.614,3008.286,2763.354,2979.521,2750.869z"/>
		<path fill="#FFFFFF" d="M3005.776,2015c-42.534-11.26-101.348-62.544-123.867-107.588
			c-17.505-40.024-20.015-150.186-20.015-1137.529c0-1039.902,1.226-1094.99,23.745-1136.299
			c68.853-130.166,247.798-145.166,336.665-27.539l33.779,43.818l3.73,1106.25c3.799,1230.122,7.529,1158.828-80.107,1226.391
			C3137.177,2013.779,3058.349,2030.059,3005.776,2015z"/>
	</g>
</g>
</svg>
